<svg width="525" height="146" viewBox="0 0 525 146" fill="none" xmlns="http://www.w3.org/2000/svg">
<rect y="28" width="525" height="114" rx="16" fill="#21252F"/>
<path d="M205.448 94.96C212.36 99.1413 217.821 101.232 221.832 101.232C224.392 101.232 225.672 100.336 225.672 98.544C225.672 97.264 223.453 95.6 219.016 93.552C208.349 89.2 203.016 82.0747 203.016 72.176C203.016 65.8613 205.32 61.04 209.928 57.712C214.536 54.384 220.04 52.72 226.44 52.72C232.925 52.72 238.387 53.4027 242.824 54.768C247.347 56.1333 249.608 57.9253 249.608 60.144C249.608 62.0213 248.669 64.496 246.792 67.568C245 70.64 243.763 72.304 243.08 72.56C239.411 70.512 235.443 69.488 231.176 69.488C228.872 69.488 227.72 70.2987 227.72 71.92C227.72 72.944 228.147 73.84 229 74.608C229.939 75.2907 231.603 76.1867 233.992 77.296C236.381 78.32 238.344 79.2587 239.88 80.112C241.501 80.9653 243.293 82.16 245.256 83.696C249.352 86.9387 251.4 91.1627 251.4 96.368C251.4 103.195 249.139 108.741 244.616 113.008C240.093 117.189 233.267 119.28 224.136 119.28C218.077 119.28 212.573 118.256 207.624 116.208C202.675 114.16 200.2 111.344 200.2 107.76C200.2 105.371 200.755 102.853 201.864 100.208C203.059 97.5627 204.253 95.8133 205.448 94.96ZM311.329 114.544C305.953 117.701 299.041 119.28 290.593 119.28C282.145 119.28 275.02 116.421 269.217 110.704C263.414 104.901 260.513 96.9227 260.513 86.768C260.513 76.528 263.286 68.2933 268.833 62.064C274.465 55.8347 281.548 52.72 290.081 52.72C298.614 52.72 305.185 54.896 309.793 59.248C314.486 63.6 316.833 68.8907 316.833 75.12C316.833 88.944 308.897 95.856 293.025 95.856H284.193C284.193 98.416 284.876 100.208 286.241 101.232C287.692 102.171 289.782 102.64 292.513 102.64C298.486 102.64 304.161 101.275 309.537 98.544C309.622 98.4587 310.006 99.056 310.689 100.336C312.737 104.005 313.761 107.12 313.761 109.68C313.761 112.155 312.95 113.776 311.329 114.544ZM295.329 77.552C295.329 73.968 293.58 72.176 290.081 72.176C288.46 72.176 287.052 72.688 285.857 73.712C284.748 74.6507 284.193 76.0587 284.193 77.936V81.904H291.105C293.921 81.904 295.329 80.4533 295.329 77.552Z" fill="#FEEFE5"/>
<path d="M394.187 54.64C394.187 53.872 396.534 53.488 401.227 53.488C411.808 53.488 417.014 53.8293 416.843 54.512L404.299 116.72C404.043 118.085 399.307 118.768 390.091 118.768C380.875 118.768 376.139 118.085 375.883 116.72L370.635 88.048L364.107 116.72C363.851 118 358.944 118.64 349.387 118.64C339.915 118.64 335.051 117.872 334.795 116.336L323.403 54C323.147 53.488 326.816 53.232 334.411 53.232C341.92 53.3173 345.675 53.488 345.675 53.744L351.563 97.008L362.187 54.256C362.358 53.744 365.174 53.488 370.635 53.488C376.096 53.488 378.912 53.744 379.083 54.256L389.579 96.496L394.187 54.64ZM434.629 71.536C432.24 67.2693 431.045 63.8133 431.045 61.168C431.045 58.4373 431.77 56.688 433.221 55.92C438.085 53.7867 444.741 52.72 453.189 52.72C461.722 52.72 467.738 54.7253 471.237 58.736C474.736 62.6613 476.485 68.5067 476.485 76.272V96.496H480.837C482.288 96.496 483.397 97.3493 484.165 99.056C485.018 100.763 485.445 103.109 485.445 106.096C485.445 109.083 484.677 112.027 483.141 114.928C481.69 117.829 479.685 119.28 477.125 119.28C472.517 119.28 468.805 118.043 465.989 115.568C464.709 114.544 463.728 113.307 463.045 111.856C459.12 116.805 453.018 119.28 444.741 119.28C438.512 119.28 433.264 117.061 428.997 112.624C424.73 108.187 422.597 102.939 422.597 96.88C422.597 82.9707 430.917 76.016 447.557 76.016H454.597V74.736C454.597 72.5173 454.213 71.1093 453.445 70.512C452.762 69.8293 451.098 69.488 448.453 69.488C445.21 69.488 440.602 70.1707 434.629 71.536ZM444.869 95.088C444.869 96.9653 445.381 98.416 446.405 99.44C447.429 100.379 448.709 100.848 450.245 100.848C451.866 100.848 453.317 100.208 454.597 98.928V89.072H451.013C446.917 89.072 444.869 91.0773 444.869 95.088Z" fill="#27BD8B"/>
<path d="M36.0001 91.0714L159.188 84.5L159.188 114.457L36.0137 114.529L36.0001 91.0714Z" fill="#27BD8B"/>
<path d="M51.0162 56.0538L131 56.0538L143.736 79.2489L51.0161 84L51.0162 56.0538Z" fill="#FEEFE5"/>
</svg>
